<?xml version="1.0" encoding="utf-8"?>
<!-- Generator: Adobe Illustrator 16.0.0, SVG Export Plug-In . SVG Version: 6.00 Build 0)  -->
<!DOCTYPE svg PUBLIC "-//W3C//DTD SVG 1.1//EN" "http://www.w3.org/Graphics/SVG/1.1/DTD/svg11.dtd">
<svg version="1.1" id="Layer_1" xmlns="http://www.w3.org/2000/svg" xmlns:xlink="http://www.w3.org/1999/xlink" x="0px" y="0px"
	 width="135.5px" height="135.5px" viewBox="0 0 135.5 135.5" enable-background="new 0 0 135.5 135.5" xml:space="preserve">
<g>
	<path fill="#666666" d="M94.48,80.19c1.104,0,2-0.896,2-2v-36c0-1.104-0.896-2-2-2h-24v-2c0-1.104-0.896-2-2-2s-2,0.896-2,2v2h-24
		c-1.104,0-2,0.896-2,2v36c0,1.104,0.896,2,2,2h24v10.172l-6.415,6.414c-0.78,0.781-0.78,2.047,0,2.828
		c0.782,0.781,2.048,0.781,2.829,0l3.586-3.586v2.172c0,1.104,0.896,2,2,2s2-0.896,2-2v-2.172l3.585,3.586
		c0.392,0.391,0.903,0.586,1.415,0.586s1.023-0.195,1.414-0.586c0.781-0.781,0.781-2.047,0-2.828l-6.414-6.414V80.19H94.48z
		 M44.48,44.19h48v32h-48V44.19z"/>
	<path fill="#666666" d="M82.48,60.19c0,1.104,0.896,2,2,2s2-0.896,2-2v-10c0-0.131-0.015-0.263-0.039-0.392c-0.013-0.06-0.035-0.115-0.052-0.173
		c-0.02-0.067-0.035-0.135-0.062-0.2c-0.029-0.068-0.068-0.131-0.104-0.195c-0.027-0.05-0.049-0.102-0.08-0.148
		c-0.148-0.22-0.336-0.408-0.556-0.555c-0.047-0.032-0.099-0.054-0.148-0.081c-0.064-0.035-0.127-0.074-0.196-0.104
		c-0.064-0.026-0.133-0.042-0.199-0.062c-0.058-0.017-0.112-0.039-0.173-0.052c-0.129-0.025-0.261-0.039-0.392-0.039h-10
		c-1.104,0-2,0.896-2,2s0.896,2,2,2h5.172L66.48,65.362l-4.586-4.586c-0.781-0.781-2.047-0.781-2.829,0l-8,8
		c-0.78,0.781-0.78,2.047,0,2.828c0.392,0.391,0.903,0.586,1.415,0.586s1.023-0.195,1.414-0.586l6.586-6.586l4.585,4.586
		c0.782,0.781,2.048,0.781,2.829,0L82.48,55.019V60.19z"/>
</g>
</svg>
