<?xml version="1.0" encoding="utf-8"?>
<!-- Generator: Adobe Illustrator 16.0.0, SVG Export Plug-In . SVG Version: 6.00 Build 0)  -->
<!DOCTYPE svg PUBLIC "-//W3C//DTD SVG 1.1//EN" "http://www.w3.org/Graphics/SVG/1.1/DTD/svg11.dtd">
<svg version="1.1" id="Layer_1" xmlns="http://www.w3.org/2000/svg" xmlns:xlink="http://www.w3.org/1999/xlink" x="0px" y="0px"
	 width="135.5px" height="135.5px" viewBox="0 0 135.5 135.5" enable-background="new 0 0 135.5 135.5" xml:space="preserve">
<g>
	<path fill="#666666" d="M98.48,96.19h-2v-28c0-2.206-1.794-4-4-4h-6c-2.206,0-4,1.794-4,4v28h-2v-48c0-2.206-1.794-4-4-4h-6c-2.206,0-4,1.794-4,4
		v48h-2v-18c0-2.206-1.794-4-4-4h-6c-2.206,0-4,1.794-4,4v18h-10v-8h4c1.104,0,2-0.896,2-2s-0.896-2-2-2h-4v-6c1.104,0,2-0.896,2-2
		s-0.896-2-2-2v-6h4c1.104,0,2-0.896,2-2s-0.896-2-2-2h-4v-6c1.104,0,2-0.896,2-2s-0.896-2-2-2v-6h4c1.104,0,2-0.896,2-2
		s-0.896-2-2-2h-4v-6c0-1.104-0.896-2-2-2s-2,0.896-2,2v58c0,2.206,1.794,4,4,4h58c1.104,0,2-0.896,2-2S99.585,96.19,98.48,96.19z
		 M86.48,68.19h6v28h-6V68.19z M70.48,48.19h6v48h-6V48.19z M54.48,78.19h6v18h-6V78.19z"/>
</g>
</svg>
