<?xml version="1.0" encoding="utf-8"?>
<!-- Generator: Adobe Illustrator 16.0.0, SVG Export Plug-In . SVG Version: 6.00 Build 0)  -->
<!DOCTYPE svg PUBLIC "-//W3C//DTD SVG 1.1//EN" "http://www.w3.org/Graphics/SVG/1.1/DTD/svg11.dtd">
<svg version="1.1" id="Layer_1" xmlns="http://www.w3.org/2000/svg" xmlns:xlink="http://www.w3.org/1999/xlink" x="0px" y="0px"
	 width="135.5px" height="135.5px" viewBox="0 0 135.5 135.5" enable-background="new 0 0 135.5 135.5" xml:space="preserve">
<g>
	<path fill="#666666" d="M84.48,39.19c-6.957,0-13.004,3.527-16,8.674c-2.994-5.146-9.043-8.674-16-8.674c-10.504,0-16,9.055-16,18
		c0,20.893,29.707,38.956,30.97,39.715c0.319,0.189,0.675,0.285,1.03,0.285c0.357,0,0.713-0.096,1.029-0.285
		c1.266-0.759,30.971-18.822,30.971-39.715C100.48,48.245,94.983,39.19,84.48,39.19z M68.48,92.827c-5.17-3.336-28-19.012-28-35.637
		c0-6.742,3.756-14,12-14c6.734,0,14,4.588,14,12c0,1.104,0.896,2,2,2c1.105,0,2-0.896,2-2c0-7.412,7.267-12,14-12
		c8.246,0,12,7.258,12,14C96.48,73.796,73.646,89.489,68.48,92.827z"/>
</g>
</svg>
