<?xml version="1.0" encoding="iso-8859-1"?>
<!-- Generator: Adobe Illustrator 18.1.1, SVG Export Plug-In . SVG Version: 6.00 Build 0)  -->
<svg version="1.1" xmlns="http://www.w3.org/2000/svg" xmlns:xlink="http://www.w3.org/1999/xlink" x="0px" y="0px"
	 viewBox="0 0 89.501 89.502" style="enable-background:new 0 0 89.501 89.502;" xml:space="preserve">
<g id="Layer_2">
	<path d="M1.748,87.754c1.167,1.167,2.691,1.748,4.219,1.748s3.052-0.582,4.219-1.748l34.566-34.566l34.566,34.566
		c1.167,1.167,2.691,1.748,4.219,1.748s3.052-0.582,4.219-1.748c2.33-2.33,2.33-6.107,0-8.437L53.188,44.751l34.566-34.566
		c2.33-2.33,2.33-6.107,0-8.437c-2.33-2.33-6.107-2.33-8.437,0L44.751,36.314L10.185,1.748c-2.33-2.33-6.107-2.33-8.437,0
		s-2.33,6.107,0,8.437l34.566,34.566L1.748,79.317C-0.583,81.647-0.583,85.424,1.748,87.754z"/>
</g>
<g id="Layer_1">
</g>
</svg>
