<?xml version="1.0" encoding="iso-8859-1"?>
<!-- Generator: Adobe Illustrator 18.1.1, SVG Export Plug-In . SVG Version: 6.00 Build 0)  -->
<svg version="1.1" xmlns="http://www.w3.org/2000/svg" xmlns:xlink="http://www.w3.org/1999/xlink" x="0px" y="0px"
	 viewBox="0 0 52.155 52.155" style="enable-background:new 0 0 52.155 52.155;" xml:space="preserve">
<g id="Layer_17">
	<path fill="#cdcdcd" d="M26.078,0C11.675,0,0,11.675,0,26.078s11.675,26.078,26.078,26.078S52.155,40.48,52.155,26.078S40.48,0,26.078,0z
		 M25.029,40.574c-1.799,0-3.231-1.431-3.231-3.231c0-1.881,1.431-3.231,3.231-3.231c1.799,0,3.231,1.349,3.231,3.231
		C28.259,39.143,26.828,40.574,25.029,40.574z M27.728,28.347l-0.409,4.621h-4.948l-0.368-8.465
		c1.145,0.286,2.126,0.286,2.535,0.286c5.725,0,5.929-8.342-0.123-7.811c-1.268,0.123-2.536,0.736-3.476,2.045l-3.68-3.108
		c2.372-3.108,5.357-4.335,8.179-4.335C36.561,11.581,38.565,26.752,27.728,28.347z"/>
</g>
<g id="Layer_1">
</g>
</svg>
