<?xml version="1.0" encoding="utf-8"?>
<!-- Generator: Adobe Illustrator 16.0.0, SVG Export Plug-In . SVG Version: 6.00 Build 0)  -->
<!DOCTYPE svg PUBLIC "-//W3C//DTD SVG 1.1//EN" "http://www.w3.org/Graphics/SVG/1.1/DTD/svg11.dtd">
<svg version="1.1" id="Layer_1" xmlns="http://www.w3.org/2000/svg" xmlns:xlink="http://www.w3.org/1999/xlink" x="0px" y="0px"
	 width="90px" height="90px" viewBox="0 0 90 90" enable-background="new 0 0 90 90" xml:space="preserve">
<g>
	<defs>
		<rect id="SVGID_1_" width="90" height="90"/>
	</defs>
	<clipPath id="SVGID_2_">
		<use xlink:href="#SVGID_1_"  overflow="visible"/>
	</clipPath>
	<path clip-path="url(#SVGID_2_)" fill="#CDCDCD" d="M90,43.841c0,24.213-19.779,43.841-44.182,43.841
		c-7.748,0-15.025-1.979-21.357-5.455L0,90l7.975-23.522c-4.023-6.605-6.34-14.354-6.34-22.637C1.635,19.628,21.416,0,45.818,0
		C70.223,0,90,19.628,90,43.841 M45.818,6.982c-20.484,0-37.146,16.535-37.146,36.859c0,8.065,2.629,15.534,7.076,21.61
		L11.107,79.14l14.275-4.537c5.865,3.852,12.891,6.098,20.438,6.098c20.48,0,37.146-16.533,37.146-36.857
		C82.965,23.519,66.301,6.982,45.818,6.982 M68.129,53.938c-0.272-0.447-0.994-0.718-2.076-1.255
		c-1.084-0.536-6.41-3.138-7.399-3.494c-0.993-0.358-1.718-0.538-2.438,0.536c-0.721,1.076-2.797,3.495-3.43,4.213
		c-0.632,0.719-1.263,0.809-2.347,0.271c-1.082-0.537-4.571-1.673-8.708-5.333c-3.219-2.848-5.393-6.364-6.025-7.441
		c-0.631-1.075-0.066-1.656,0.475-2.191c0.488-0.482,1.084-1.255,1.625-1.882c0.543-0.628,0.723-1.075,1.082-1.793
		c0.363-0.717,0.182-1.344-0.09-1.883c-0.27-0.537-2.438-5.825-3.34-7.977c-0.902-2.15-1.803-1.792-2.436-1.792
		c-0.631,0-1.354-0.09-2.076-0.09c-0.722,0-1.896,0.269-2.889,1.344c-0.992,1.076-3.789,3.676-3.789,8.963
		c0,5.288,3.879,10.397,4.422,11.113c0.541,0.716,7.49,11.92,18.5,16.223C58.2,65.771,58.2,64.336,60.186,64.156
		c1.984-0.18,6.406-2.6,7.312-5.107C68.398,56.537,68.398,54.386,68.129,53.938"/>
</g>
</svg>
