<?xml version="1.0" encoding="iso-8859-1"?>
<!-- Generator: Adobe Illustrator 18.1.1, SVG Export Plug-In . SVG Version: 6.00 Build 0)  -->
<svg version="1.1" xmlns="http://www.w3.org/2000/svg" xmlns:xlink="http://www.w3.org/1999/xlink" x="0px" y="0px"
	 viewBox="0 0 64 58" style="enable-background:new 0 0 64 58;" xml:space="preserve">
<g id="Layer_20">
	<g>
		<path fill="#666666" d="M48,0c-6.957,0-13.004,3.527-16,8.674C29.006,3.527,22.957,0,16,0C5.496,0,0,9.055,0,18
			c0,20.893,29.707,38.956,30.97,39.715C31.289,57.904,31.645,58,32,58c0.357,0,0.713-0.096,1.029-0.285
			C34.295,56.956,64,38.893,64,18C64,9.055,58.503,0,48,0z M32,53.637C26.83,50.301,4,34.625,4,18C4,11.258,7.756,4,16,4
			c6.734,0,14,4.588,14,12c0,1.104,0.896,2,2,2c1.105,0,2-0.896,2-2c0-7.412,7.267-12,14-12c8.246,0,12,7.258,12,14
			C60,34.605,37.165,50.299,32,53.637z"/>
	</g>
</g>
<g id="Layer_1">
</g>
</svg>
