<?xml version="1.0" encoding="iso-8859-1"?>
<!-- Generator: Adobe Illustrator 18.1.1, SVG Export Plug-In . SVG Version: 6.00 Build 0)  -->
<svg version="1.1" xmlns="http://www.w3.org/2000/svg" xmlns:xlink="http://www.w3.org/1999/xlink" x="0px" y="0px"
	 viewBox="0 0 33.534 59.701" style="enable-background:new 0 0 33.534 59.701;" xml:space="preserve">
<g id="Layer_28">
	<g>
		<path fill="#cdcdcd" d="M0,25.493c0,3.146,2.528,5.701,5.722,5.701c3.194,0,5.722-2.556,5.722-5.701s-2.528-5.57-5.722-5.57
			C2.528,19.922,0,22.347,0,25.493z M0,45.874c0,3.146,2.528,5.636,5.722,5.636c3.194,0,5.722-2.49,5.722-5.636
			c0-3.277-2.528-5.636-5.722-5.636C2.528,40.238,0,42.597,0,45.874z"/>
		<path fill="#cdcdcd" d="M26.815,0C12.91,15.4,12.91,40.893,26.482,59.701l6.919-4.653c-11.31-16.056-11.377-36.175,0.133-50.592L26.815,0z"/>
	</g>
</g>
<g id="Layer_1">
</g>
</svg>
