<?xml version="1.0" encoding="iso-8859-1"?>
<!-- Generator: Adobe Illustrator 18.1.1, SVG Export Plug-In . SVG Version: 6.00 Build 0)  -->
<svg version="1.1" xmlns="http://www.w3.org/2000/svg" xmlns:xlink="http://www.w3.org/1999/xlink" x="0px" y="0px"
	 viewBox="0 0 56 64" style="enable-background:new 0 0 56 64;" xml:space="preserve">
<g id="Layer_19">
	<g>
		<path fill="#666666" d="M54,44c1.104,0,2-0.896,2-2V6c0-1.104-0.896-2-2-2H30V2c0-1.105-0.896-2-2-2s-2,0.896-2,2v2H2C0.896,4,0,4.896,0,6v36
			c0,1.104,0.896,2,2,2h24v10.172l-6.415,6.414c-0.78,0.781-0.78,2.047,0,2.828c0.782,0.781,2.048,0.781,2.829,0L26,59.828V62
			c0,1.104,0.896,2,2,2s2-0.896,2-2v-2.172l3.585,3.586C33.977,63.805,34.488,64,35,64c0.512,0,1.023-0.195,1.414-0.586
			c0.781-0.781,0.781-2.047,0-2.828L30,54.172V44H54z M4,8h48v32H4V8z"/>
		<path fill="#666666" d="M42,24c0,1.104,0.896,2,2,2s2-0.896,2-2V14c0-0.131-0.015-0.263-0.039-0.392c-0.013-0.06-0.035-0.115-0.052-0.173
			c-0.02-0.067-0.035-0.135-0.062-0.2c-0.029-0.068-0.068-0.131-0.103-0.195c-0.027-0.05-0.049-0.102-0.08-0.148
			c-0.148-0.22-0.336-0.408-0.556-0.555c-0.047-0.032-0.099-0.054-0.149-0.081c-0.064-0.035-0.127-0.074-0.196-0.103
			c-0.064-0.026-0.133-0.042-0.199-0.062c-0.058-0.017-0.112-0.039-0.173-0.052C44.263,12.014,44.131,12,44,12H34
			c-1.104,0-2,0.895-2,2s0.896,2,2,2h5.172L26,29.172l-4.586-4.586c-0.781-0.781-2.047-0.781-2.829,0l-8,8
			c-0.78,0.781-0.78,2.047,0,2.828C10.977,35.805,11.488,36,12,36c0.512,0,1.023-0.195,1.414-0.586L20,28.828l4.585,4.586
			c0.782,0.781,2.048,0.781,2.829,0L42,18.828V24z"/>
	</g>
</g>
<g id="Layer_1">
</g>
</svg>
