<?xml version="1.0" encoding="iso-8859-1"?>
<!-- Generator: Adobe Illustrator 18.1.1, SVG Export Plug-In . SVG Version: 6.00 Build 0)  -->
<svg version="1.1" xmlns="http://www.w3.org/2000/svg" xmlns:xlink="http://www.w3.org/1999/xlink" x="0px" y="0px"
	 viewBox="0 0 58.657 58.657" style="enable-background:new 0 0 58.657 58.657;" xml:space="preserve">
<g id="Layer_7">
	<g>
		<path fill="#b4b4b4" d="M29.329,0C21.495,0,14.13,3.051,8.591,8.592C3.051,14.13,0,21.495,0,29.329c0,7.833,3.051,15.199,8.591,20.737
			c5.539,5.54,12.904,8.591,20.738,8.591c7.833,0,15.199-3.051,20.738-8.591c5.54-5.539,8.591-12.904,8.591-20.737
			c0-7.833-3.051-15.199-8.591-20.737C44.527,3.051,37.162,0,29.329,0z M47.474,47.474c-4.848,4.848-11.292,7.518-18.146,7.518
			c-6.855,0-13.299-2.67-18.146-7.518c-4.848-4.847-7.517-11.291-7.517-18.145c0-6.854,2.669-13.299,7.518-18.145
			c4.847-4.847,11.29-7.517,18.145-7.517c6.854,0,13.298,2.67,18.146,7.517c4.848,4.847,7.517,11.291,7.517,18.145
			C54.991,36.183,52.322,42.627,47.474,47.474z"/>
		<path fill="#b4b4b4" d="M42.881,33.143l-11.72-5.023V9.165c0-1.012-0.821-1.833-1.833-1.833c-1.012,0-1.833,0.821-1.833,1.833v20.163
			c0,0.733,0.437,1.396,1.111,1.684l12.832,5.499c0.235,0.101,0.48,0.149,0.721,0.149c0.711-0.001,1.388-0.417,1.685-1.112
			C44.244,34.619,43.812,33.542,42.881,33.143z"/>
		<path fill="#b4b4b4" d="M10.998,27.496H9.165c-1.012,0-1.833,0.821-1.833,1.833c0,1.012,0.821,1.833,1.833,1.833h1.833
			c1.012,0,1.833-0.821,1.833-1.833C12.831,28.316,12.011,27.496,10.998,27.496z"/>
		<path fill="#b4b4b4" d="M45.826,29.329c0,1.012,0.821,1.833,1.833,1.833h1.833c1.012,0,1.833-0.821,1.833-1.833c0-1.012-0.821-1.833-1.833-1.833
			h-1.833C46.647,27.496,45.826,28.316,45.826,29.329z"/>
		<path fill="#b4b4b4" d="M29.329,45.826c-1.012,0-1.833,0.821-1.833,1.833v1.833c0,1.012,0.821,1.833,1.833,1.833c1.012,0,1.833-0.821,1.833-1.833
			v-1.833C31.162,46.647,30.341,45.826,29.329,45.826z"/>
	</g>
</g>
<g id="Layer_1">
</g>
</svg>
