<?xml version="1.0" encoding="iso-8859-1"?>
<!-- Generator: Adobe Illustrator 18.1.1, SVG Export Plug-In . SVG Version: 6.00 Build 0)  -->
<svg version="1.1" xmlns="http://www.w3.org/2000/svg" xmlns:xlink="http://www.w3.org/1999/xlink" x="0px" y="0px"
	 viewBox="0 0 74.712 60.717" style="enable-background:new 0 0 74.712 60.717;" xml:space="preserve">
<g id="Layer_9">
	<path fill="#cdcdcd" id="twitter-icon" d="M74.712,7.187c-2.749,1.219-5.703,2.044-8.803,2.414c3.164-1.897,5.595-4.901,6.739-8.48
		c-2.962,1.757-6.242,3.032-9.734,3.719C60.118,1.861,56.134,0,51.726,0c-9.894,0-17.167,9.233-14.931,18.821
		C24.056,18.182,12.761,12.079,5.201,2.806C1.186,9.694,3.119,18.708,9.945,23.27c-2.512-0.079-4.876-0.769-6.942-1.918
		c-0.166,7.102,4.923,13.742,12.294,15.223c-2.157,0.587-4.52,0.721-6.922,0.262c1.95,6.089,7.611,10.521,14.319,10.644
		C16.249,52.533,8.132,54.788,0,53.83c6.783,4.349,14.84,6.887,23.496,6.887c28.458,0,44.536-24.037,43.567-45.595
		C70.058,12.961,72.657,10.261,74.712,7.187z"/>
</g>
<g id="Layer_1">
</g>
</svg>
