<?xml version="1.0" encoding="iso-8859-1"?>
<!-- Generator: Adobe Illustrator 18.1.1, SVG Export Plug-In . SVG Version: 6.00 Build 0)  -->
<svg version="1.1" xmlns="http://www.w3.org/2000/svg" xmlns:xlink="http://www.w3.org/1999/xlink" x="0px" y="0px"
	 viewBox="0 0 72.001 50.625" style="enable-background:new 0 0 72.001 50.625;" xml:space="preserve">
<g id="Layer_4">
	<g>
		<path style="fill:#989696;" d="M5.258,33.006L36,7.377l30.742,25.629c1.361,1.133,3.379,0.947,4.514-0.41
			c1.135-1.357,0.951-3.381-0.408-4.514L38.053,0.744C37.459,0.246,36.729,0,36,0c-0.731,0-1.459,0.246-2.053,0.744L1.152,28.082
			c-1.359,1.133-1.543,3.156-0.408,4.514C1.881,33.957,3.895,34.141,5.258,33.006z"/>
		<path style="fill:#989696;" d="M38.053,17.619c-0.594-0.498-1.324-0.744-2.053-0.744c-0.731,0-1.459,0.246-2.053,0.744
			L1.152,44.957c-1.359,1.133-1.543,3.156-0.408,4.514c1.137,1.361,3.15,1.545,4.514,0.41L36,24.252l30.742,25.629
			c1.361,1.133,3.379,0.947,4.514-0.41c1.135-1.357,0.951-3.381-0.408-4.514L38.053,17.619z"/>
	</g>
</g>
<g id="Layer_1">
</g>
</svg>
