<?xml version="1.0" encoding="iso-8859-1"?>
<!-- Generator: Adobe Illustrator 18.1.1, SVG Export Plug-In . SVG Version: 6.00 Build 0)  -->
<svg version="1.1" xmlns="http://www.w3.org/2000/svg" xmlns:xlink="http://www.w3.org/1999/xlink" x="0px" y="0px"
	 viewBox="0 0 62.605 62.605" style="enable-background:new 0 0 62.605 62.605;" xml:space="preserve">
<g id="Layer_12">
	<g>
		<path fill="#cacaca" d="M31.302,0C14.015,0,0,14.015,0,31.302C0,48.59,14.015,62.605,31.302,62.605S62.605,48.59,62.605,31.302
			C62.605,14.015,48.59,0,31.302,0z M40.845,46.44l-8.684-8.683c-7.397,3.323-15.905-2.093-15.905-10.308
			c0-6.227,5.066-11.293,11.293-11.293c8.349,0,13.757,8.763,10.179,16.182l8.61,8.61C46.551,43.502,43.315,46.646,40.845,46.44z"/>
		<path fill="#cacaca" d="M27.549,19.909c-4.157,0-7.539,3.382-7.539,7.54c0,4.157,3.382,7.54,7.539,7.54c4.157,0,7.54-3.382,7.54-7.54
			C35.089,23.291,31.707,19.909,27.549,19.909z"/>
	</g>
</g>
<g id="Layer_1">
</g>
</svg>
