<?xml version="1.0" encoding="iso-8859-1"?>
<!-- Generator: Adobe Illustrator 18.1.1, SVG Export Plug-In . SVG Version: 6.00 Build 0)  -->
<svg version="1.1" xmlns="http://www.w3.org/2000/svg" xmlns:xlink="http://www.w3.org/1999/xlink" x="0px" y="0px"
	 viewBox="0 0 36 20" style="enable-background:new 0 0 36 20;" xml:space="preserve">
<g id="Layer_6">
	<path style="fill:#ffffff;" d="M36,10c0-1.105-0.896-2-2-2H6.829l4.585-4.586c0.781-0.78,0.781-2.048,0-2.828
		c-0.781-0.781-2.047-0.781-2.828,0l-8,8C0.195,8.976,0,9.488,0,10c0,0.512,0.195,1.024,0.586,1.414l8,8
		c0.781,0.781,2.047,0.781,2.828,0c0.781-0.78,0.781-2.048,0-2.828L6.829,12H34C35.104,12,36,11.104,36,10z"/>
</g>
<g id="Layer_1">
</g>
</svg>
