<?xml version="1.0" encoding="iso-8859-1"?>
<!-- Generator: Adobe Illustrator 18.1.1, SVG Export Plug-In . SVG Version: 6.00 Build 0)  -->
<svg version="1.1" xmlns="http://www.w3.org/2000/svg" xmlns:xlink="http://www.w3.org/1999/xlink" x="0px" y="0px"
	 viewBox="0 0 64 64" style="enable-background:new 0 0 64 64;" xml:space="preserve">
<g id="Layer_21">
	<g>
		<path fill="#666666" d="M62,60h-2V32c0-2.206-1.794-4-4-4h-6c-2.206,0-4,1.794-4,4v28h-2V12c0-2.206-1.794-4-4-4h-6c-2.206,0-4,1.794-4,4v48h-2
			V42c0-2.206-1.794-4-4-4h-6c-2.206,0-4,1.794-4,4v18H4v-8h4c1.104,0,2-0.896,2-2s-0.896-2-2-2H4v-6c1.105,0,2-0.896,2-2
			s-0.895-2-2-2v-6h4c1.104,0,2-0.896,2-2s-0.896-2-2-2H4v-6c1.105,0,2-0.896,2-2s-0.895-2-2-2v-6h4c1.104,0,2-0.896,2-2
			S9.105,8,8,8H4V2c0-1.105-0.895-2-2-2S0,0.895,0,2v58c0,2.206,1.794,4,4,4h58c1.104,0,2-0.896,2-2S63.105,60,62,60z M50,32h6v28
			h-6V32z M34,12h6v48h-6V12z M18,42h6v18h-6V42z"/>
	</g>
</g>
<g id="Layer_1">
</g>
</svg>
