<?xml version="1.0" encoding="iso-8859-1"?>
<!-- Generator: Adobe Illustrator 18.1.1, SVG Export Plug-In . SVG Version: 6.00 Build 0)  -->
<svg version="1.1" xmlns="http://www.w3.org/2000/svg" xmlns:xlink="http://www.w3.org/1999/xlink" x="0px" y="0px"
	 viewBox="0 0 72.001 50.625" style="enable-background:new 0 0 72.001 50.625;" xml:space="preserve">
<g id="Layer_3">
	<g>
		<path style="fill:#989696;" d="M66.743,17.619L36,43.248L5.258,17.619c-1.361-1.133-3.379-0.947-4.514,0.41
			c-1.135,1.357-0.951,3.381,0.408,4.514l32.795,27.338c0.594,0.498,1.324,0.744,2.053,0.744c0.731,0,1.459-0.246,2.053-0.744
			l32.795-27.338c1.359-1.133,1.543-3.156,0.408-4.514C70.119,16.668,68.106,16.484,66.743,17.619z"/>
		<path style="fill:#989696;" d="M33.948,33.006c0.594,0.498,1.324,0.744,2.053,0.744c0.731,0,1.459-0.246,2.053-0.744L70.848,5.668
			c1.359-1.133,1.543-3.156,0.408-4.514c-1.137-1.361-3.15-1.545-4.514-0.41L36,26.373L5.258,0.744
			c-1.361-1.133-3.379-0.947-4.514,0.41c-1.135,1.357-0.951,3.381,0.408,4.514L33.948,33.006z"/>
	</g>
</g>
<g id="Layer_1">
</g>
</svg>
