<?xml version="1.0" encoding="iso-8859-1"?>
<!-- Generator: Adobe Illustrator 18.1.1, SVG Export Plug-In . SVG Version: 6.00 Build 0)  -->
<svg version="1.1" xmlns="http://www.w3.org/2000/svg" xmlns:xlink="http://www.w3.org/1999/xlink" x="0px" y="0px"
	 viewBox="0 0 91.25 76.842" style="enable-background:new 0 0 91.25 76.842;" xml:space="preserve">
<g id="Layer_1_1_">
	<g>
		<path fill="#322e2e" d="M4.803,67.237h81.645c2.653,0,4.803,2.149,4.803,4.803c0,2.651-2.149,4.803-4.803,4.803H4.803
			C2.152,76.842,0,74.691,0,72.04C0,69.386,2.149,67.237,4.803,67.237z"/>
		<path fill="#322e2e" d="M4.803,33.619h81.645c2.653,0,4.803,2.149,4.803,4.803s-2.149,4.803-4.803,4.803H4.803C2.152,43.224,0,41.075,0,38.421
			S2.149,33.619,4.803,33.619z"/>
		<path fill="#322e2e" d="M4.803,0h81.645c2.653,0,4.803,2.149,4.803,4.803c0,2.653-2.149,4.803-4.803,4.803H4.803C2.152,9.605,0,7.456,0,4.803
			S2.149,0,4.803,0z"/>
	</g>
</g>
<g id="Layer_1">
</g>
</svg>
