<?xml version="1.0" encoding="iso-8859-1"?>
<!-- Generator: Adobe Illustrator 18.1.1, SVG Export Plug-In . SVG Version: 6.00 Build 0)  -->
<svg version="1.1" xmlns="http://www.w3.org/2000/svg" xmlns:xlink="http://www.w3.org/1999/xlink" x="0px" y="0px"
	 viewBox="0 0 64 48" style="enable-background:new 0 0 64 48;" xml:space="preserve">
<g id="Layer_22">
	<g>
		<path fill="#666666" d="M62,8H42.727C42.064,5.082,39.791,0,32,0c-7.791,0-10.065,5.082-10.727,8H2c-1.104,0-2,0.896-2,2v36c0,1.104,0.896,2,2,2
			h60c1.105,0,2-0.896,2-2V10C64,8.896,63.105,8,62,8z M32,4c4.336,0,5.98,2.244,6.609,4H25.389C26.018,6.254,27.669,4,32,4z M60,12
			v8H4v-8H60z M29,24h6v2h-6V24z M4,44V24h21v4c0,1.104,0.896,2,2,2h10c1.105,0,2-0.896,2-2v-4h21v20H4z"/>
	</g>
</g>
<g id="Layer_1">
</g>
</svg>
