<?xml version="1.0" encoding="iso-8859-1"?>
<!-- Generator: Adobe Illustrator 16.0.0, SVG Export Plug-In . SVG Version: 6.00 Build 0)  -->
<!DOCTYPE svg PUBLIC "-//W3C//DTD SVG 1.1//EN" "http://www.w3.org/Graphics/SVG/1.1/DTD/svg11.dtd">
<svg version="1.1" xmlns="http://www.w3.org/2000/svg" xmlns:xlink="http://www.w3.org/1999/xlink" x="0px" y="0px" width="412px"
	 height="334.824px" viewBox="0 0 412 334.824" style="enable-background:new 0 0 412 334.824;" xml:space="preserve">
<g id="Layer_2">
	<path fill="#aaaaaa" id="twitter-icon" d="M412,39.635c-15.158,6.724-31.449,11.269-48.547,13.31c17.449-10.461,30.854-27.025,37.164-46.765
		c-16.333,9.688-34.422,16.722-53.676,20.512C331.523,10.264,309.555,0,285.243,0c-54.56,0-94.668,50.916-82.337,103.787
		c-70.25-3.524-132.534-37.177-174.223-88.314C6.541,53.456,17.198,103.164,54.841,128.323
		c-13.854-0.438-26.891-4.241-38.285-10.574c-0.917,39.162,27.146,75.781,67.795,83.949c-11.896,3.236-24.926,3.979-38.17,1.447
		c10.754,33.58,41.972,58.018,78.96,58.698C89.604,289.693,44.846,302.132,0,296.847c37.406,23.982,81.837,37.978,129.571,37.978
		c156.932,0,245.595-132.552,240.251-251.435C386.339,71.472,400.668,56.585,412,39.635z"/>
</g>
<g id="Layer_1">
</g>
</svg>
