<?xml version="1.0" encoding="iso-8859-1"?>
<!-- Generator: Adobe Illustrator 16.0.0, SVG Export Plug-In . SVG Version: 6.00 Build 0)  -->
<!DOCTYPE svg PUBLIC "-//W3C//DTD SVG 1.1//EN" "http://www.w3.org/Graphics/SVG/1.1/DTD/svg11.dtd">
<svg version="1.1" xmlns="http://www.w3.org/2000/svg" xmlns:xlink="http://www.w3.org/1999/xlink" x="0px" y="0px"
	 width="116.348px" height="116.348px" viewBox="0 0 116.348 116.348" style="enable-background:new 0 0 116.348 116.348;"
	 xml:space="preserve">
<g id="Layer_7">
	<g>
		<path fill="#aaaaaa" d="M58.174,0C42.635,0,28.027,6.052,17.041,17.042C6.052,28.027,0,42.636,0,58.174C0,73.711,6.052,88.32,17.04,99.307
			c10.987,10.988,25.596,17.041,41.134,17.041c15.537,0,30.146-6.053,41.133-17.041c10.99-10.986,17.041-25.596,17.041-41.133
			c0-15.538-6.051-30.146-17.041-41.132C88.32,6.052,73.711,0,58.174,0z M94.166,94.165c-9.615,9.615-22.398,14.911-35.992,14.911
			c-13.597,0-26.378-5.296-35.992-14.911c-9.615-9.613-14.91-22.396-14.91-35.991c0-13.595,5.295-26.378,14.911-35.991
			c9.613-9.615,22.395-14.911,35.991-14.911c13.594,0,26.377,5.296,35.992,14.911c9.615,9.613,14.908,22.396,14.908,35.991
			C109.074,71.77,103.781,84.552,94.166,94.165z"/>
		<path fill="#aaaaaa" d="M85.055,65.74l-23.246-9.963V18.18c0-2.008-1.627-3.636-3.635-3.636c-2.008,0-3.636,1.628-3.636,3.636v39.994
			c0,1.454,0.867,2.77,2.204,3.341l25.452,10.908c0.465,0.2,0.951,0.296,1.43,0.296c1.41-0.002,2.752-0.827,3.342-2.205
			C87.758,68.668,86.9,66.53,85.055,65.74z"/>
		<path fill="#aaaaaa" d="M21.815,54.538h-3.636c-2.008,0-3.636,1.628-3.636,3.636s1.628,3.636,3.636,3.636h3.636c2.008,0,3.636-1.628,3.636-3.636
			S23.823,54.538,21.815,54.538z"/>
		<path fill="#aaaaaa" d="M90.896,58.174c0,2.008,1.627,3.636,3.635,3.636h3.637c2.008,0,3.635-1.628,3.635-3.636s-1.627-3.636-3.635-3.636h-3.637
			C92.523,54.538,90.896,56.166,90.896,58.174z"/>
		<path fill="#aaaaaa" d="M58.174,90.896c-2.008,0-3.636,1.628-3.636,3.636v3.636c0,2.008,1.628,3.636,3.636,3.636c2.008,0,3.635-1.628,3.635-3.636
			v-3.636C61.809,92.524,60.182,90.896,58.174,90.896z"/>
	</g>
</g>
<g id="Layer_1">
</g>
</svg>
