<?xml version="1.0" encoding="utf-8"?>
<!-- Generator: Adobe Illustrator 16.0.0, SVG Export Plug-In . SVG Version: 6.00 Build 0)  -->
<!DOCTYPE svg PUBLIC "-//W3C//DTD SVG 1.1//EN" "http://www.w3.org/Graphics/SVG/1.1/DTD/svg11.dtd">
<svg version="1.1" id="Layer_1" xmlns="http://www.w3.org/2000/svg" xmlns:xlink="http://www.w3.org/1999/xlink" x="0px" y="0px"
	 width="135.5px" height="135.5px" viewBox="0 0 135.5 135.5" enable-background="new 0 0 135.5 135.5" xml:space="preserve">
<g>
	<path fill="#666666" d="M98.48,52.19H79.207c-0.662-2.918-2.936-8-10.727-8s-10.065,5.082-10.727,8H38.48c-1.104,0-2,0.896-2,2v36
		c0,1.104,0.896,2,2,2h60c1.105,0,2-0.896,2-2v-36C100.48,53.086,99.586,52.19,98.48,52.19z M68.48,48.19
		c4.336,0,5.98,2.244,6.609,4H61.869C62.498,50.444,64.149,48.19,68.48,48.19z M96.48,56.19v8h-56v-8H96.48z M65.48,68.19h6v2h-6
		V68.19z M40.48,88.19v-20h21v4c0,1.104,0.896,2,2,2h10c1.105,0,2-0.896,2-2v-4h21v20H40.48z"/>
</g>
</svg>
