<?xml version="1.0" encoding="iso-8859-1"?>
<!-- Generator: Adobe Illustrator 16.0.0, SVG Export Plug-In . SVG Version: 6.00 Build 0)  -->
<!DOCTYPE svg PUBLIC "-//W3C//DTD SVG 1.1//EN" "http://www.w3.org/Graphics/SVG/1.1/DTD/svg11.dtd">
<svg version="1.1" xmlns="http://www.w3.org/2000/svg" xmlns:xlink="http://www.w3.org/1999/xlink" x="0px" y="0px" width="32px"
	 height="32px" viewBox="0 0 32 32" style="enable-background:new 0 0 32 32;" xml:space="preserve">
<g id="Layer_8">
	<g transform="translate(0 0)">
		<g id="icon-play">
			<path fill="#ffffff" d="M16,0C7.163,0,0,7.163,0,16s7.163,16,16,16c8.836,0,16-7.163,16-16S24.836,0,16,0z M16,29C8.82,29,3,23.18,3,16
				C3,8.82,8.82,3,16,3c7.18,0,13,5.82,13,13C29,23.18,23.18,29,16,29z M12,9l12,7l-12,7V9z"/>
		</g>
	</g>
</g>
<g id="Layer_1">
</g>
</svg>
