<?xml version="1.0" encoding="iso-8859-1"?>
<!-- Generator: Adobe Illustrator 18.1.1, SVG Export Plug-In . SVG Version: 6.00 Build 0)  -->
<svg version="1.1" xmlns="http://www.w3.org/2000/svg" xmlns:xlink="http://www.w3.org/1999/xlink" x="0px" y="0px"
	 viewBox="0 0 52.756 78.868" style="enable-background:new 0 0 52.756 78.868;" xml:space="preserve">
<g id="Layer_27">
	<g>
		<path fill="#ec1c47" d="M52.756,15.956c0-8.812-4.102-15.954-11.393-15.954c-7.288,0-11.39,7.142-11.39,15.954c0,9.681,3.961,12.302,5.104,14.047
			c1.141,1.748,2.744,2.383,2.744,8.668l-0.535,36.114c0,2.255,1.824,4.081,4.077,4.081c2.25,0,4.075-1.826,4.075-4.081
			l-0.471-36.114c0-6.285,1.766-7.063,2.684-8.668C48.571,28.402,52.756,25.637,52.756,15.956z"/>
		<path fill="#ec1c47" d="M16,0.868v17.854c0,0.96-0.538,1.738-1.501,1.738C13.54,20.46,13,19.682,13,18.722V0.868H9v17.854
			c0,0.96-1.04,1.738-1.997,1.738C6.034,20.46,5,19.682,5,18.722V0.868H1.076L0,22.347c0,4.189,0.941,7.758,4.059,9.012L4.036,31.39
			c0,0,3.023,0.988,3.023,7.273L6.497,74.781c0,2.255,1.83,4.083,4.08,4.083c2.254,0,4.078-1.825,4.078-4.08L14.137,38.67
			c0-6.285,2.984-7.265,2.984-7.265L17.1,31.389c3.111-1.254,4.057-4.853,4.057-9.042L20.29,0.868H16z"/>
	</g>
</g>
<g id="Layer_1">
</g>
</svg>
