<?xml version="1.0" encoding="iso-8859-1"?>
<!-- Generator: Adobe Illustrator 16.0.0, SVG Export Plug-In . SVG Version: 6.00 Build 0)  -->
<!DOCTYPE svg PUBLIC "-//W3C//DTD SVG 1.1//EN" "http://www.w3.org/Graphics/SVG/1.1/DTD/svg11.dtd">
<svg version="1.1" xmlns="http://www.w3.org/2000/svg" xmlns:xlink="http://www.w3.org/1999/xlink" x="0px" y="0px" width="71.57px"
	 height="93.547px" viewBox="0 0 71.57 93.547" style="enable-background:new 0 0 71.57 93.547;" xml:space="preserve">
	<path style="fill:none;stroke-width:2;stroke-miterlimit:10;" d="M56.85,50.618
		c-2.879,2.173-6.236,3.911-9.926,5.088c0.219-0.095,0.436-0.19,0.65-0.29c0.006-0.003,0.012-0.006,0.02-0.009
		c9.777-4.521,16.564-14.413,16.564-25.894C64.158,13.766,51.393,1,35.645,1C19.897,1,7.131,13.766,7.131,29.513
		c0,11.24,6.505,20.959,15.955,25.604l0.001,0.001c0.21,0.103,0.421,0.204,0.633,0.301h0.001c0.213,0.099,0.427,0.194,0.643,0.287
		c-3.598-1.147-6.879-2.832-9.71-4.931L1.709,81.259l15.169-3.86L24.611,91l12.924-32.25L46.959,91l7.732-13.602l15.17,3.86
		L56.85,50.618z M35.645,7.053c12.404,0,22.461,10.056,22.461,22.46c0,12.404-10.057,22.459-22.461,22.459
		c-12.404,0-22.46-10.056-22.46-22.459C13.185,17.109,23.24,7.053,35.645,7.053z"/>
	<polygon style="fill:none;stroke-width:2;stroke-miterlimit:10;" points="28.307,31.43 28.267,31.654 
		26.577,41.519 35.645,36.752 35.984,36.924 44.711,41.519 42.98,31.422 42.986,31.416 43.107,31.291 50.316,24.272 40.178,22.799 
		39.91,22.257 35.645,13.612 31.111,22.799 20.973,24.272 28.309,31.422 		"/>
</svg>
