<?xml version="1.0" encoding="iso-8859-1"?>
<!-- Generator: Adobe Illustrator 18.1.1, SVG Export Plug-In . SVG Version: 6.00 Build 0)  -->
<svg version="1.1" xmlns="http://www.w3.org/2000/svg" xmlns:xlink="http://www.w3.org/1999/xlink" x="0px" y="0px"
	 viewBox="0 0 176.104 116.429" style="enable-background:new 0 0 176.104 116.429;" xml:space="preserve">
	<path style="fill:none;stroke-width:6;stroke-miterlimit:10;" d="M173.104,103.216
		c0,5.592-4.533,10.125-10.125,10.125H13.125C7.534,113.341,3,108.808,3,103.216V13.125C3,7.533,7.534,3,13.125,3h149.853
		c5.592,0,10.125,4.533,10.125,10.125V103.216z"/>
	<path style="fill:none;stroke-width:6;stroke-miterlimit:10;" d="M171.879,107.795l-61.853-57.966L89.605,76.092
		c-0.773,0.773-2.026,0.773-2.797,0L66.043,49.386L3.292,104.008c-0.755,0.754,1.68,9.263,9.823,9.361
		c9.691,0.117,147.489,0.034,150.011-0.017C168.121,113.254,171.532,109.352,171.879,107.795z"/>
	<path style="fill:none;stroke-width:6;stroke-miterlimit:10;" d="M31.039,3c-0.196,0.671-0.03,1.426,0.5,1.955
		l55.313,71.136c0.772,0.773,2.025,0.773,2.797,0l55.313-71.136c0.529-0.529,0.695-1.284,0.498-1.955H31.039z"/>
</svg>
