<?xml version="1.0" encoding="iso-8859-1"?>
<!-- Generator: Adobe Illustrator 18.1.1, SVG Export Plug-In . SVG Version: 6.00 Build 0)  -->
<svg version="1.1" xmlns="http://www.w3.org/2000/svg" xmlns:xlink="http://www.w3.org/1999/xlink" x="0px" y="0px"
	 viewBox="0 0 69.089 77.227" style="enable-background:new 0 0 69.089 77.227;" xml:space="preserve">
<g id="Layer_14">
	<path fill="#666666" style="stroke-width:2;stroke-miterlimit:10;" d="M75.429-1.004h-6.124v-2.442
		c0-2.519-2.049-4.565-4.567-4.565c-2.519,0-4.567,2.047-4.567,4.565v2.442H20.875v-2.442c0-2.519-2.049-4.565-4.568-4.565
		c-2.517,0-4.567,2.047-4.567,4.565v2.442H5.618C3.071-1.004,1,1.069,1,3.614v67.995c0,2.549,2.071,4.618,4.618,4.618h69.811
		c2.545,0,4.616-2.07,4.616-4.618V3.614C80.046,1.069,77.974-1.004,75.429-1.004z M62.949-3.446c0-0.986,0.803-1.786,1.79-1.786
		c0.986,0,1.79,0.8,1.79,1.786v2.442v1.389v5.042c0,0.988-0.804,1.791-1.79,1.791c-0.986,0-1.79-0.803-1.79-1.791V0.385v-1.389
		V-3.446z M14.52-3.446c0-0.986,0.802-1.786,1.788-1.786c0.987,0,1.789,0.8,1.789,1.786v2.442v1.389v5.042
		c0,0.988-0.802,1.791-1.789,1.791c-0.986,0-1.788-0.803-1.788-1.791V0.385v-1.389V-3.446z M5.618,1.775h6.122v3.652
		c0,2.518,2.049,4.57,4.567,4.57c2.519,0,4.568-2.052,4.568-4.57V1.775h39.295v3.652c0,2.518,2.049,4.57,4.567,4.57
		c2.518,0,4.567-2.052,4.567-4.57V1.775h6.124c1.013,0,1.839,0.825,1.839,1.839v13.339H3.779V3.614
		C3.779,2.6,4.604,1.775,5.618,1.775z M75.429,73.448H5.618c-1.015,0-1.839-0.825-1.839-1.839V19.73h73.49v51.879
		C77.269,72.624,76.442,73.448,75.429,73.448z"/>
</g>
<g id="Layer_1">
</g>
</svg>
